<?xml version="1.0" encoding="UTF-8"?>
<svg id="Layer_1" xmlns="http://www.w3.org/2000/svg" version="1.1" viewBox="0 0 595 510">
  <!-- Generator: Adobe Illustrator 30.2.1, SVG Export Plug-In . SVG Version: 2.1.1 Build 1)  -->
  <defs>
    <style>
      .st0 {
        isolation: isolate;
      }

      .st1 {
        fill: none;
        stroke: red;
        stroke-miterlimit: 10;
      }

      .st2 {
        fill: red;
      }
    </style>
  </defs>
  <g class="st0">
    <path class="st2" d="M796.4,445.3c-1.3,0-2.6,0-3.9-.2s-2.4-.3-3.5-.5-2.2-.5-3.2-.9-2-.8-2.8-1.3c-2.3-1.3-4.2-2.6-5.6-4.1s-2.4-3.1-2.9-4.8-.6-3.5-.2-5.5,1.2-4,2.4-6.1c3.4-5.9,9.9-12.5,18.6-19.6,8.5-6.8,19-14.1,30.7-21.5,11.3-7.2,23.8-14.5,36.7-21.8,12.4-7.1,25.1-14.1,37.6-21,4.8-2.7,9.6-5.3,14.4-8,4.7-2.6,9.3-5.2,13.9-7.8,4.5-2.5,8.9-5,13.2-7.5,4.2-2.4,8.4-4.9,12.4-7.3,13.1-7.8,25.6-16.3,37.2-24.9,11-8.2,21-16.3,30-24.1,8.5-7.3,16.1-14.3,22.7-20.5s11.7-11.2,16.1-15.6c1.4-1.4,2.7-2.7,4-3.9s2.3-2.3,3.4-3.3,1.9-1.8,2.8-2.6,1.5-1.3,2.1-1.8c2.6-2,5.3-3.9,8.2-5.6s6-3.2,9.7-4.7c3.6-1.4,7.7-2.7,12.5-3.9s10.2-2.4,16.5-3.4c1-.2,2.1-.4,3.2-.5s2.2-.4,3.3-.6,2.3-.4,3.4-.6,2.4-.4,3.6-.6c6.7-1.1,13.9-2.3,21.3-3.6s14.8-2.6,22.1-4.1,14.2-3,20.6-4.7c6.3-1.6,12.1-3.4,17-5.2,2.4-.9,4.6-1.8,6.7-2.7s4.1-1.8,6-2.6,3.6-1.7,5.3-2.5,3.2-1.6,4.6-2.3c2-1,3.8-1.9,5.5-2.7s3.2-1.5,4.7-2.1,2.8-1,4.1-1.4,2.5-.5,3.7-.5.2,0,.4,0,.2,0,.4,0,.2,0,.4,0,.2,0,.4,0c.5,0,.9.1,1.3.2s.8.2,1.1.3.6.2.8.4.4.3.5.4c.8,1,0,2.4-2.3,4.3s-6.3,4.2-11.7,6.8c-5.5,2.7-12.6,5.8-21.2,9.3-8.8,3.6-19.3,7.5-31.2,11.6-4.8,1.7-9.5,3.2-14.2,4.5s-9.4,2.6-13.8,3.7-8.9,2.1-13,3c-4.1.9-8,1.7-11.6,2.5-3.8.8-7.3,1.5-10.5,2.3s-6,1.4-8.5,2.1-4.6,1.5-6.4,2.3c-1.8.8-3.1,1.7-4.1,2.7-.6.7-1.1,1.4-1.3,2.2s-.3,1.6,0,2.5.6,1.9,1.2,3,1.5,2.2,2.6,3.5l17.3,17.8c-13.5,7.2-27.8,15-42.1,22.8s-30.1,16.7-43.8,24.5-27.3,15.7-37.2,21.7c-10.2,6.2-17,10.6-18.6,12.3-3.5,3.6-10.4,10.3-20,18.9-10,9-23,20.1-38.1,31.9-15.9,12.5-34.2,25.8-53,37.5-19.8,12.4-39.9,23-57.6,28.9-2.3.8-4.6,1.4-6.7,2s-4.3,1.1-6.3,1.4-4,.7-5.9.9-3.7.3-5.4.3M1258.3,352.8c-4.1,0-8.1-.9-11.8-2.2-3.7-1.3-7.1-3-10-4.8s-5.2-3.4-6.8-4.7-2.5-2.1-2.6-2.1l-94.8-96.8c9.4-5,18.7-9.9,27.5-14.5,8.5-4.4,16.5-8.5,23.7-12.1,7-3.5,13.2-6.5,18.4-8.8s9.1-4,11.9-4.9c7-2.3,14.1-5.2,21-8.6,6.7-3.3,13.3-7.1,19.5-11.2s11.6-8.2,16.7-12.6c4.9-4.2,9.4-8.6,13.4-13,2.9-3.3,5.5-5.8,7.8-7.7s4.3-3.2,6-4.2,3.2-1.5,4.5-1.9,2.3-.5,3.2-.5h.1c.4,0,.7,0,1,0s.5,0,.7.1.4.1.5.1.2,0,.2,0h.1c0,0,.2,0,.2,0,0,0,.5,0,1.3.1s2,.2,3.4.5,3.2.6,5.1,1,4.1,1,6.5,1.8c4,1.2,7.6,2.7,11,4.3,3.4,1.6,6.6,3.4,9.5,5.3,2.9,1.9,5.6,3.8,8,5.8,2.4,2,4.6,3.9,6.5,5.7,2.8,2.8,5.2,5.3,7,7.6,1.9,2.4,3.3,4.5,4.1,6.4s1.1,3.6.9,5.1-1.1,2.7-2.5,3.8c-1.4,1-3.2,1.7-5.5,2.3s-5.1,1-8.3,1.3-6.7.5-10.6.6-8.1.1-12.5.1-1.1,0-1.7,0-1.2,0-1.7,0-1.2,0-1.8,0-1.2,0-1.8,0c-.6,0-1.3,0-2,0s-1.3,0-2,0-1.3,0-2,0-1.3,0-2,0c-11.7,0-20.8,1.3-27.9,3.3-7.3,2.1-12.8,5.1-16.8,8.4-4.2,3.4-7,7.3-8.9,11-1.9,3.8-2.9,7.5-3.3,10.3-.2,1.2,0,2.5.3,4s.9,3.2,1.7,5.1c.8,1.9,1.7,3.9,2.8,6.1,1.1,2.2,2.3,4.6,3.7,7.1,2.4,4.5,5,9.5,7.5,14.8,2.6,5.5,5.1,11.4,7.1,17.6,2.1,6.5,3.7,13.3,4.3,20.3.7,7.3.3,14.8-1.6,22.4-1,4-2.3,7.7-3.8,10.9-1.6,3.3-3.4,6.1-5.6,8.5s-4.6,4.3-7.2,5.7-5.6,2.2-8.8,2.5c-.2,0-.4,0-.6,0s-.4,0-.6,0-.4,0-.6,0-.4,0-.6,0M1305.6,142.1c-1.1,0-2.3.1-3.7.5s-3,1-4.8,2-3.8,2.4-6,4.3c-2.3,1.9-4.8,4.4-7.6,7.5-4,4.4-8.5,8.8-13.4,13s-10.8,8.6-16.7,12.5c-6.2,4.1-12.7,7.8-19.4,11.1-6.9,3.4-14,6.3-21,8.6-2.7.9-6.7,2.5-11.5,4.7-5,2.2-11,5.1-17.8,8.5-7,3.5-14.9,7.5-23.5,11.9-8.9,4.6-18.5,9.7-28.5,15l-17.2-17.6c-1.1-1.2-1.9-2.4-2.5-3.4s-1-2-1.2-2.9-.2-1.7,0-2.4c.2-.7.6-1.4,1.2-2.1.9-1,2.2-1.8,4-2.6s3.8-1.5,6.3-2.2,5.3-1.4,8.4-2.1,6.6-1.4,10.3-2.2c3.6-.8,7.5-1.6,11.7-2.5,4.1-.9,8.5-1.9,13-3.1,4.5-1.1,9.1-2.4,13.9-3.8,4.7-1.4,9.5-2.9,14.3-4.6,9.3-3.3,18.6-6.7,27.2-10.1,8.3-3.3,15.9-6.5,22.2-9.4,6.1-2.9,11-5.5,14-7.7,3-2.2,4.2-3.9,3.1-5.2-.2-.2-.4-.4-.6-.5s-.6-.3-.9-.4-.8-.2-1.2-.3-1-.2-1.5-.3c-.1,0-.3,0-.4,0s-.3,0-.4,0-.3,0-.4,0-.3,0-.4,0c-1.3,0-2.6.2-3.9.5s-2.8.8-4.3,1.4-3.1,1.3-4.8,2.1c-1.7.8-3.6,1.7-5.6,2.7-1.5.8-3.1,1.5-4.8,2.3s-3.4,1.6-5.3,2.5-3.8,1.7-5.9,2.6-4.3,1.8-6.7,2.6c-4.9,1.8-10.7,3.6-17,5.2-6.4,1.7-13.4,3.2-20.5,4.6s-14.7,2.8-22,4.1-14.6,2.5-21.2,3.6c-1.2.2-2.4.4-3.6.6s-2.3.4-3.4.6-2.2.4-3.3.6-2.1.4-3.2.5c-6.4,1.1-11.9,2.2-16.7,3.5s-9,2.6-12.7,4c-3.7,1.5-6.9,3-9.8,4.7-3,1.7-5.7,3.6-8.3,5.6-.6.5-1.3,1.1-2.2,1.8s-1.8,1.6-2.8,2.6-2.2,2.1-3.4,3.3-2.6,2.5-4,3.9c-4.5,4.4-9.8,9.6-16.1,15.5-6.6,6.2-14.2,13.1-22.7,20.4-9,7.7-19,15.9-30,24-11.5,8.6-24,17-37.1,24.8-4,2.4-8.2,4.8-12.4,7.2s-8.7,5-13.2,7.5c-4.5,2.6-9.2,5.1-13.8,7.7s-9.5,5.3-14.4,7.9c-13.1,7.2-26.2,14.5-38.8,21.7-13.1,7.5-25.6,14.8-37,22-11.7,7.4-22.2,14.6-30.5,21.5-8.7,7.1-15.1,13.7-18.6,19.8-1.3,2.3-2.2,4.4-2.6,6.5-.4,2.1-.4,4,.1,5.8.5,1.8,1.5,3.5,2.9,5.1,1.5,1.6,3.4,3,5.9,4.3.9.5,1.9.9,3,1.3s2.2.7,3.3.9,2.4.4,3.7.6,2.6.2,4,.2,3.7-.1,5.6-.3,4-.5,6.1-.9,4.3-.9,6.6-1.5,4.6-1.3,7-2.1c17.9-5.9,38.2-16.7,58.3-29.3,19-11.9,37.4-25.3,53.4-37.9,15.1-11.9,28.3-23.1,38.3-32.2s16.6-15.4,20-19c1.4-1.5,6.5-4.9,14.4-9.8,7.7-4.8,18.1-10.9,30.2-17.9,11.6-6.7,24.8-14.1,38.7-21.9,13.3-7.4,27.2-15.1,41.3-22.7,1.4-.7,2.7-1.5,4.1-2.2s2.7-1.5,4.1-2.2,2.7-1.5,4.1-2.2,2.7-1.5,4.1-2.2l94.5,96.9c.2.1,1.2,1.1,2.9,2.4s4.1,3.1,7.1,4.8c3,1.8,6.5,3.5,10.3,4.8s8,2.2,12.3,2.2.4,0,.7,0,.5,0,.7,0,.5,0,.7,0,.5,0,.7,0c3.3-.3,6.4-1.2,9.2-2.6s5.3-3.4,7.5-5.8,4.1-5.4,5.7-8.7c1.6-3.3,2.9-7.1,3.9-11.2,1.9-7.7,2.2-15.3,1.6-22.6-.7-7-2.3-13.9-4.4-20.4-2-6.2-4.5-12.2-7.2-17.7-2.5-5.3-5.1-10.3-7.5-14.9-1.3-2.5-2.6-4.8-3.7-7s-2.1-4.2-2.8-6.1-1.4-3.5-1.7-5c-.4-1.5-.5-2.8-.3-3.9.4-2.8,1.3-6.4,3.2-10.2,1.8-3.7,4.6-7.5,8.7-10.9,4-3.3,9.4-6.3,16.6-8.4s16.1-3.3,27.6-3.3,1.4,0,2,0,1.3,0,2,0,1.3,0,2,0,1.3,0,2,0c.6,0,1.2,0,1.8,0s1.2,0,1.8,0,1.2,0,1.8,0,1.2,0,1.8,0c4.5,0,8.7,0,12.6-.1s7.5-.3,10.7-.6,6-.8,8.4-1.4,4.3-1.4,5.6-2.4c1.4-1,2.3-2.3,2.6-3.8s0-3.2-.9-5.2c-.8-1.9-2.2-4.1-4.2-6.5s-4.3-4.9-7.1-7.7c-1.9-1.8-4.1-3.8-6.5-5.8s-5.1-3.9-8.1-5.8c-2.9-1.9-6.1-3.7-9.6-5.3-3.4-1.6-7.1-3.1-11.1-4.3-2.2-.7-4.3-1.2-6.1-1.7s-3.5-.8-5-1-2.6-.4-3.5-.5-1.5-.2-1.8-.2c0,0-.2,0-.4-.1s-.4-.1-.6-.2-.5-.1-.9-.1-.7,0-1.1,0c0,0,0,0,0,0s0,0,0,0,0,0,0,0,0,0,0,0"/>
  </g>
  <path class="st1" d="M229.8,256.4l98.3,160.4s25.4,37.3,44.6-14.1c19.2-51.4-2.8-115.2,2.8-139.5,5.6-24.3,23.7-74,75.1-74s80.2,5.6,75.7-80.2-43.5-92.6-43.5-92.6c0,0-7.9-19.2-46.9,54.8s-76.8,116.9-103.9,135.5c-27.1,18.6-169.4,180.7-173.4,194.3-4,13.6-39,110.1-77.9,94.3s11.3-63.2,44-112.4c32.8-49.1,50.3-138.4,57-155.3s15.8-31.1,44.6-42.9c28.8-11.9,80.4-29.5,110.7-56.5,30.8-27.5,49.5-60.6,61-56.5,20.4,7.4-27.7,58.2-87,105.6s-104.5,37.3-81.3,79.1Z"/>
</svg>